<svg width="18" height="18" viewBox="0 0 18 18" fill="none" xmlns="http://www.w3.org/2000/svg">
<path d="M15.54 5.99978L5.88 0.459782C5.35729 0.157941 4.764 -0.000180146 4.16039 0.00147775C3.55679 0.00313564 2.96438 0.164514 2.44333 0.469221C1.92228 0.773929 1.49115 1.21111 1.19375 1.73636C0.896337 2.26161 0.743238 2.85621 0.750001 3.45978V14.5798C0.750001 15.4868 1.11032 16.3567 1.7517 16.9981C2.39307 17.6395 3.26296 17.9998 4.17 17.9998C4.77044 17.9988 5.36009 17.8401 5.88 17.5398L15.54 11.9998C16.0591 11.6994 16.49 11.2678 16.7896 10.7482C17.0892 10.2287 17.2469 9.6395 17.2469 9.03978C17.2469 8.44006 17.0892 7.85088 16.7896 7.33135C16.49 6.81181 16.0591 6.38019 15.54 6.07978V5.99978Z" fill="#00B7FF"/>
</svg>
