<svg width="70" height="70" viewBox="0 0 70 70" fill="none" xmlns="http://www.w3.org/2000/svg">
<g filter="url(#filter0_bf_1_1790)">
<rect x="23.1445" y="2" width="50" height="50" rx="8" transform="rotate(25.018 23.1445 2)" fill="white" fill-opacity="0.7"/>
<circle cx="35.2256" cy="35.2269" r="15" transform="rotate(25.018 35.2256 35.2269)" fill="#2A2A2A"/>
<g clip-path="url(#clip0_1_1790)">
<path d="M36.1647 29.7247C34.4327 29.5001 32.8718 29.9389 31.5721 31.0318C30.8983 31.5928 30.6972 31.8766 30.2235 32.8915C29.7499 33.9064 29.6615 34.2429 29.6578 35.1338C29.6351 39.964 35.1673 42.5287 38.8832 39.422C39.557 38.861 39.7581 38.5772 40.2317 37.5623C40.7054 36.5473 40.7937 36.2109 40.7909 35.3341C40.7956 34.2205 40.4649 33.0534 39.8982 32.1709C39.1277 30.953 37.5404 29.9033 36.1647 29.7247ZM38.4792 31.9379C38.7047 32.5581 38.4425 32.8992 37.5329 33.23C37.078 33.3954 36.6796 33.5871 36.6467 33.6575C36.6072 33.7421 36.3554 33.6933 36.0734 33.5617L35.566 33.3249L35.9005 32.8287C36.6251 31.8279 37.0179 31.4275 37.4267 31.3608C37.9671 31.2697 38.2988 31.4417 38.4792 31.9379ZM36.0546 34.9262C36.1373 35.1536 36.1458 35.4665 36.0734 35.6216C35.9023 35.9881 35.1994 36.2437 34.8329 36.0727C34.6779 36.0003 34.4833 35.755 34.4006 35.5276C34.318 35.3002 34.3095 34.9872 34.3819 34.8322C34.4542 34.6771 34.6995 34.4826 34.9269 34.3999C35.1543 34.3172 35.4673 34.3088 35.6223 34.3811C35.7774 34.4535 35.9719 34.6988 36.0546 34.9262ZM32.8717 34.5737C33.2617 34.8416 33.4064 35.0464 33.4083 35.3735C33.4008 35.6103 33.3716 35.8198 33.3303 35.8349C33.1442 35.9025 31.3841 35.6647 31.1021 35.5332C30.7356 35.3621 30.387 34.5643 30.5383 34.2401C30.5909 34.1273 30.808 33.9196 31.0204 33.7956C31.3428 33.6199 31.4753 33.6302 31.8793 33.9046C32.1415 34.0785 32.5813 34.3867 32.8717 34.5737ZM37.2067 37.644C37.4228 38.174 37.5647 38.7895 37.5215 38.9925C37.4247 39.531 36.7593 39.8899 36.266 39.6597C35.7726 39.4294 35.6204 38.9464 35.8093 38.2106C35.8845 37.9024 35.9221 37.4908 35.8892 37.3037C35.8262 37.034 35.8864 36.9419 36.2087 36.7662C36.4145 36.6563 36.6419 36.5736 36.6983 36.5999C36.7547 36.6262 36.983 37.0933 37.2067 37.644Z" fill="white"/>
</g>
</g>
<defs>
<filter id="filter0_bf_1_1790" x="-42.0007" y="-42" width="154.454" height="154.454" filterUnits="userSpaceOnUse" color-interpolation-filters="sRGB">
<feFlood flood-opacity="0" result="BackgroundImageFix"/>
<feGaussianBlur in="BackgroundImageFix" stdDeviation="22"/>
<feComposite in2="SourceAlpha" operator="in" result="effect1_backgroundBlur_1_1790"/>
<feBlend mode="normal" in="SourceGraphic" in2="effect1_backgroundBlur_1_1790" result="shape"/>
<feGaussianBlur stdDeviation="2" result="effect2_foregroundBlur_1_1790"/>
</filter>
<clipPath id="clip0_1_1790">
<rect width="14" height="14" fill="white" transform="translate(31.8438 25.9233) rotate(25.018)"/>
</clipPath>
</defs>
</svg>
