<svg width="79" height="79" viewBox="0 0 79 79" fill="none" xmlns="http://www.w3.org/2000/svg">
<g filter="url(#filter0_bf_1_1814)">
<rect x="1" y="22.7458" width="60" height="60" rx="10" transform="rotate(-21.2495 1 22.7458)" fill="white" fill-opacity="0.7"/>
<circle cx="39.8341" cy="39.8333" r="20" transform="rotate(-21.2495 39.8341 39.8333)" fill="#2A2A2A"/>
<g clip-path="url(#clip0_1_1814)">
<path d="M31.8295 36.2938C31.7788 36.4088 32.3046 37.9449 32.9892 39.7054L34.2376 42.9157L33.7681 44.0996C32.7739 46.6321 34.3019 49.0899 36.9737 49.3385C38.3671 49.4881 39.3612 49.1015 40.2955 48.0705C42.0894 46.0616 41.5556 43.2172 39.1117 42.0217C37.6987 41.3313 37.273 40.5431 38.1026 40.1013C38.5214 39.8907 38.5974 39.7181 38.4363 39.3039C38.2752 38.8897 38.1026 38.8137 37.6516 38.9415C37.151 39.0646 37.0072 39.0013 36.8139 38.5042C36.6206 38.0071 36.6839 37.8633 37.1361 37.6159C37.5549 37.4054 37.6309 37.2328 37.4698 36.8186C37.3087 36.4043 37.1361 36.3284 36.6851 36.4561C36.1638 36.5873 36.0614 36.5079 35.7013 35.7657L35.3009 34.92L33.6198 35.5022C32.6798 35.8439 31.8801 36.1787 31.8295 36.2938ZM35.9256 39.8987C37.1418 43.0262 37.2131 43.3322 36.922 43.5646C36.219 44.148 35.9773 45.2434 36.3639 46.2375C36.6699 47.0246 36.8621 47.2121 37.6928 47.509L38.6467 47.8772L37.8861 48.0061C37.4685 48.097 36.7309 47.9784 36.25 47.784C35.5228 47.4468 35.3226 47.2386 34.9762 46.348C34.5896 45.3538 34.6035 45.2054 35.15 44.1583L35.7138 43.033L34.538 40.0092L33.3621 36.9853L33.9834 36.7437L34.6048 36.5021L35.9256 39.8987Z" fill="white"/>
<path d="M40.582 34.034C39.7673 35.9245 39.9399 36.4296 41.2562 36.0131L42.171 35.7289L44.242 40.932L46.3338 46.1271L46.8516 45.9258L47.3693 45.7244L45.4019 40.481L43.4137 35.2457L44.2801 34.8372C45.532 34.255 45.318 33.766 43.4402 32.9225C42.5979 32.5348 41.7626 32.2874 41.5762 32.3599C41.3898 32.4323 40.941 33.1791 40.582 34.034Z" fill="white"/>
</g>
</g>
<defs>
<filter id="filter0_bf_1_1814" x="-43" y="-43" width="165.667" height="165.667" filterUnits="userSpaceOnUse" color-interpolation-filters="sRGB">
<feFlood flood-opacity="0" result="BackgroundImageFix"/>
<feGaussianBlur in="BackgroundImageFix" stdDeviation="22"/>
<feComposite in2="SourceAlpha" operator="in" result="effect1_backgroundBlur_1_1814"/>
<feBlend mode="normal" in="SourceGraphic" in2="effect1_backgroundBlur_1_1814" result="shape"/>
<feGaussianBlur stdDeviation="1.5" result="effect2_foregroundBlur_1_1814"/>
</filter>
<clipPath id="clip0_1_1814">
<rect width="20" height="20" fill="white" transform="translate(26.3203 35.4319) rotate(-21.2495)"/>
</clipPath>
</defs>
</svg>
