<svg width="104" height="104" viewBox="0 0 104 104" fill="none" xmlns="http://www.w3.org/2000/svg">
<g filter="url(#filter0_b_1_1795)">
<rect x="28.6836" width="80" height="80" rx="15" transform="rotate(21.0105 28.6836 0)" fill="white" fill-opacity="0.7"/>
<circle cx="51.6814" cy="51.6821" r="28" transform="rotate(21.0105 51.6814 51.6821)" fill="#2A2A2A"/>
<g clip-path="url(#clip0_1_1795)">
<g clip-path="url(#clip1_1_1795)">
<path d="M46.1377 39.2211C45.374 39.561 45.1888 39.9564 42.099 48.0012C39.0092 56.0461 38.882 56.4638 39.2219 57.2276C39.5618 57.9913 39.9572 58.1765 48.0021 61.2663C56.0469 64.3561 56.4646 64.4833 57.2284 64.1434C57.9921 63.8035 58.1773 63.4081 61.2671 55.3632C64.3569 47.3184 64.4841 46.9007 64.1442 46.1369C63.8043 45.3732 63.4089 45.188 55.3641 42.0982C47.3192 39.0083 46.9015 38.8812 46.1377 39.2211ZM57.9126 46.7429C58.2525 47.5067 58.1254 47.9244 56.0395 53.3554C53.2285 60.6742 53.5657 60.4037 49.006 58.6525C44.4463 56.9012 44.5157 57.3278 47.3267 50.0091C50.1376 42.6903 49.8004 42.9607 54.3601 44.712C57.1773 45.794 57.5906 46.0194 57.9126 46.7429Z" fill="white"/>
<path d="M48.0664 53.2922L47.0625 55.906L49.6763 56.9099L52.2902 57.9138L53.2941 55.3L54.298 52.6861L51.6842 51.6822L49.0703 50.6783L48.0664 53.2922Z" fill="white"/>
</g>
</g>
</g>
<defs>
<filter id="filter0_b_1_1795" x="-43.9995" y="-44" width="191.364" height="191.364" filterUnits="userSpaceOnUse" color-interpolation-filters="sRGB">
<feFlood flood-opacity="0" result="BackgroundImageFix"/>
<feGaussianBlur in="BackgroundImageFix" stdDeviation="22"/>
<feComposite in2="SourceAlpha" operator="in" result="effect1_backgroundBlur_1_1795"/>
<feBlend mode="normal" in="SourceGraphic" in2="effect1_backgroundBlur_1_1795" result="shape"/>
</filter>
<clipPath id="clip0_1_1795">
<rect width="28" height="28" fill="white" transform="translate(43.6328 33.5935) rotate(21.0105)"/>
</clipPath>
<clipPath id="clip1_1_1795">
<rect width="28" height="28" fill="white" transform="translate(43.6328 33.5935) rotate(21.0105)"/>
</clipPath>
</defs>
</svg>
