<svg width="40" height="40" viewBox="0 0 40 40" fill="none" xmlns="http://www.w3.org/2000/svg">
<g id="entypo-social:instagram-with-circle">
<circle id="Ellipse 3" cx="20" cy="20" r="12" fill="#FAFAFA"/>
<path id="Vector" d="M25.208 19.9997C25.208 21.381 24.6593 22.7058 23.6825 23.6825C22.7058 24.6593 21.381 25.208 19.9997 25.208C18.6183 25.208 17.2936 24.6593 16.3168 23.6825C15.3401 22.7058 14.7913 21.381 14.7913 19.9997C14.7913 19.7028 14.8226 19.4129 14.8764 19.1316H13.0552V26.0709C13.0552 26.5535 13.4459 26.9441 13.9285 26.9441H26.0726C26.3039 26.9437 26.5256 26.8514 26.689 26.6877C26.8524 26.524 26.9441 26.3022 26.9441 26.0709V19.1316H25.1229C25.1768 19.4129 25.208 19.7028 25.208 19.9997ZM19.9997 23.4719C20.4558 23.4718 20.9074 23.3818 21.3287 23.2072C21.75 23.0325 22.1328 22.7766 22.4553 22.454C22.7777 22.1315 23.0334 21.7485 23.2079 21.3271C23.3823 20.9057 23.472 20.454 23.4719 19.9979C23.4718 19.5418 23.3818 19.0902 23.2072 18.6689C23.0325 18.2476 22.7766 17.8648 22.454 17.5423C22.1315 17.2199 21.7485 16.9642 21.3271 16.7898C20.9057 16.6153 20.454 16.5256 19.9979 16.5257C19.0768 16.5259 18.1935 16.8921 17.5423 17.5436C16.8912 18.1951 16.5255 19.0786 16.5257 19.9997C16.5259 20.9208 16.8921 21.8041 17.5436 22.4553C18.1951 23.1064 19.0786 23.4721 19.9997 23.4719ZM24.1663 16.3538H26.2479C26.3862 16.3538 26.5189 16.299 26.6168 16.2014C26.7148 16.1038 26.77 15.9713 26.7705 15.833V13.7514C26.7705 13.6128 26.7155 13.4799 26.6174 13.3819C26.5194 13.2839 26.3865 13.2288 26.2479 13.2288H24.1663C24.0277 13.2288 23.8948 13.2839 23.7968 13.3819C23.6988 13.4799 23.6438 13.6128 23.6438 13.7514V15.833C23.6455 16.1195 23.8799 16.3538 24.1663 16.3538ZM19.9997 3.33301C15.5794 3.33301 11.3402 5.08895 8.21456 8.21456C5.08895 11.3402 3.33301 15.5794 3.33301 19.9997C3.33301 24.4199 5.08895 28.6592 8.21456 31.7848C11.3402 34.9104 15.5794 36.6663 19.9997 36.6663C22.1884 36.6663 24.3556 36.2352 26.3777 35.3977C28.3998 34.5601 30.2371 33.3324 31.7848 31.7848C33.3324 30.2371 34.5601 28.3998 35.3977 26.3777C36.2352 24.3556 36.6663 22.1884 36.6663 19.9997C36.6663 17.811 36.2352 15.6437 35.3977 13.6216C34.5601 11.5995 33.3324 9.7622 31.7848 8.21456C30.2371 6.66692 28.3998 5.43926 26.3777 4.60168C24.3556 3.7641 22.1884 3.33301 19.9997 3.33301ZM28.6802 26.7514C28.6802 27.8122 27.8122 28.6802 26.7514 28.6802H13.2479C12.1872 28.6802 11.3191 27.8122 11.3191 26.7514V13.2479C11.3191 12.1872 12.1872 11.3191 13.2479 11.3191H26.7514C27.8122 11.3191 28.6802 12.1872 28.6802 13.2479V26.7514Z" fill="#363636"/>
</g>
</svg>
