<svg width="1440" height="800" viewBox="0 0 1440 800" fill="none" xmlns="http://www.w3.org/2000/svg">
<path d="M20.5 168.5L120.5 168.5H220.5L320.5 168.5H420.5L520.5 168.5H620.5L720.5 168.5L820.5 168.5H920.5L1020.5 168.5H1120.5L1220.5 168.5H1320.5L1420.5 168.5V268.5V368.5V468.5V568.5V668.5L1420.5 768.5V868.5V968.5V1068.5V1168.5V1268.5H1320.5H1220.5H1120.5H1020.5H920.501H820.501H720.501L620.501 1268.5H520.501H420.501H320.501H220.5H120.5H20.5001L20.5001 1168.5L20.5 1068.5L20.5 968.501L20.5 868.501L20.5 768.5L20.5 668.5L20.5 568.5L20.5 468.5L20.5 368.5L20.5 268.5L20.5 168.5Z" fill="url(#paint0_linear_688_1273)"/>
<path d="M0 168.5L1440 168.5M0 368.5L1440 368.5M0 568.5L1440 568.5M0 768.5L1440 768.5M0 968.501L1440 968.5M0 1168.5L1440 1168.5M0 268.5L1440 268.5M0 468.5L1440 468.5M0 668.5L1440 668.5M0 868.501L1440 868.5M0 1068.5L1440 1068.5M0 1268.5L1440 1268.5M1120.5 0.00012207L1120.5 1440M1420.5 0.00012207L1420.5 1440M920.5 0.00012207L920.501 1440M1220.5 0.00012207L1220.5 1440M720.5 0.00012207L720.501 1440M520.5 0L520.501 1440M320.5 0L320.501 1440M120.5 0L120.5 1440M1020.5 0.00012207L1020.5 1440M1320.5 0.00012207L1320.5 1440M820.5 0.00012207L820.501 1440M620.5 0.00012207L620.501 1440M420.5 0L420.501 1440M220.5 0L220.5 1440M20.5 0L20.5001 1440" stroke="#2A2A2A" stroke-opacity="0.15"/>
<path d="M0 168.5L1440 168.5M0 368.5L1440 368.5M0 568.5L1440 568.5M0 768.5L1440 768.5M0 968.501L1440 968.5M0 1168.5L1440 1168.5M0 268.5L1440 268.5M0 468.5L1440 468.5M0 668.5L1440 668.5M0 868.501L1440 868.5M0 1068.5L1440 1068.5M0 1268.5L1440 1268.5M1120.5 0.00012207L1120.5 1440M1420.5 0.00012207L1420.5 1440M920.5 0.00012207L920.501 1440M1220.5 0.00012207L1220.5 1440M720.5 0.00012207L720.501 1440M520.5 0L520.501 1440M320.5 0L320.501 1440M120.5 0L120.5 1440M1020.5 0.00012207L1020.5 1440M1320.5 0.00012207L1320.5 1440M820.5 0.00012207L820.501 1440M620.5 0.00012207L620.501 1440M420.5 0L420.501 1440M220.5 0L220.5 1440M20.5 0L20.5001 1440" stroke="url(#paint1_linear_688_1273)"/>
<defs>
<linearGradient id="paint0_linear_688_1273" x1="720" y1="0" x2="720" y2="582.5" gradientUnits="userSpaceOnUse">
<stop stop-color="#EFEFEF" stop-opacity="0"/>
<stop offset="1" stop-color="#EFEFEF"/>
</linearGradient>
<linearGradient id="paint1_linear_688_1273" x1="720" y1="0" x2="720" y2="720" gradientUnits="userSpaceOnUse">
<stop stop-color="#EFEFEF" stop-opacity="0"/>
<stop offset="1" stop-color="#EFEFEF"/>
</linearGradient>
</defs>
</svg>
