<svg width="40" height="40" viewBox="0 0 40 40" fill="none" xmlns="http://www.w3.org/2000/svg">
<g id="entypo-social:youtube-with-circle">
<circle id="Ellipse 3" cx="20" cy="20" r="12" fill="#FAFAFA"/>
<path id="Vector" d="M22.7827 19.7097L18.8834 17.8903C18.5431 17.7323 18.2636 17.9094 18.2636 18.2861V21.7132C18.2636 22.09 18.5431 22.267 18.8834 22.109L22.7809 20.2896C23.1229 20.1299 23.1229 19.8695 22.7827 19.7097ZM19.9997 3.33301C10.7948 3.33301 3.33301 10.7948 3.33301 19.9997C3.33301 29.2045 10.7948 36.6663 19.9997 36.6663C29.2045 36.6663 36.6663 29.2045 36.6663 19.9997C36.6663 10.7948 29.2045 3.33301 19.9997 3.33301ZM19.9997 26.7705C11.4684 26.7705 11.3191 26.0014 11.3191 19.9997C11.3191 13.9979 11.4684 13.2288 19.9997 13.2288C28.5309 13.2288 28.6802 13.9979 28.6802 19.9997C28.6802 26.0014 28.5309 26.7705 19.9997 26.7705Z" fill="#363636"/>
</g>
</svg>
